<?xml version="1.0" standalone="no"?>
<!DOCTYPE svg PUBLIC "-//W3C//DTD SVG 20010904//EN"
 "http://www.w3.org/TR/2001/REC-SVG-20010904/DTD/svg10.dtd">
<svg version="1.0" xmlns="http://www.w3.org/2000/svg"
 width="700.000000pt" height="700.000000pt" viewBox="0 0 700.000000 700.000000"
 preserveAspectRatio="xMidYMid meet">
<metadata>
Created by potrace 1.11, written by Peter Selinger 2001-2013
</metadata>
<g transform="translate(0.000000,700.000000) scale(0.100000,-0.100000)"
fill="#000000" stroke="none">
<path d="M765 6559 c-166 -24 -300 -161 -324 -330 -14 -99 -3 -5441 11 -5499
28 -112 107 -208 213 -257 l60 -28 2775 0 2775 0 65 31 c83 39 145 101 184
184 l31 65 7 2715 c4 1584 4 2744 -2 2784 -23 177 -156 310 -335 336 -88 12
-5373 11 -5460 -1z m5575 -3687 c0 -1704 -2 -1945 -15 -1997 -16 -64 -57 -131
-90 -149 -11 -6 -22 -14 -25 -18 -3 -4 -26 -15 -50 -25 -43 -17 -181 -18
-2705 -20 -2317 -2 -2666 -1 -2709 12 -100 30 -150 78 -187 176 l-24 64 -3
1885 c-2 1037 0 1913 3 1948 l7 62 2899 0 2899 0 0 -1938z"/>
<path d="M890 3943 c-20 -26 -21 -33 -18 -421 l3 -394 24 -19 c22 -18 44 -19
417 -19 381 0 395 1 414 20 19 19 20 33 20 420 0 387 -1 401 -20 420 -19 19
-33 20 -419 20 l-400 0 -21 -27z"/>
<path d="M2352 3947 c-22 -23 -22 -27 -22 -416 l0 -392 25 -24 24 -25 389 0
c379 0 390 1 416 21 l26 20 0 400 c0 386 -1 400 -20 419 -19 19 -33 20 -418
20 l-399 0 -21 -23z"/>
<path d="M3810 3950 c-19 -19 -20 -33 -20 -419 l0 -400 26 -20 c26 -20 37 -21
416 -21 l389 0 24 25 25 24 0 394 0 394 -23 21 c-23 22 -26 22 -420 22 -384 0
-398 -1 -417 -20z"/>
<path d="M5270 3950 c-19 -19 -20 -33 -20 -420 0 -387 1 -401 20 -420 19 -19
33 -20 414 -20 373 0 395 1 417 19 l24 19 3 394 c3 388 2 395 -18 421 l-21 27
-400 0 c-386 0 -400 -1 -419 -20z"/>
<path d="M891 2224 c-20 -26 -21 -37 -21 -416 l0 -389 25 -24 24 -25 396 0
c382 0 396 1 415 20 19 19 20 33 20 420 0 387 -1 401 -20 420 -19 19 -33 20
-419 20 l-400 0 -20 -26z"/>
<path d="M2351 2224 c-20 -26 -21 -37 -21 -414 0 -377 1 -388 21 -414 l20 -26
398 0 c386 0 398 1 419 20 22 21 22 22 22 420 0 387 -1 401 -20 420 -19 19
-33 20 -419 20 l-400 0 -20 -26z"/>
<path d="M3810 2230 c-19 -19 -20 -33 -20 -420 0 -398 0 -399 22 -420 21 -19
33 -20 419 -20 l398 0 20 26 c20 26 21 37 21 414 0 377 -1 388 -21 414 l-20
26 -400 0 c-386 0 -400 -1 -419 -20z"/>
<path d="M5267 2232 c-15 -17 -17 -61 -17 -425 l0 -406 22 -15 c19 -14 76 -16
418 -16 217 0 400 4 406 8 31 21 34 54 34 432 0 378 -3 411 -34 432 -6 4 -191
8 -412 8 -376 0 -402 -1 -417 -18z"/>
</g>
</svg>
